<svg width="41" height="42" viewBox="0 0 41 42" fill="none" xmlns="http://www.w3.org/2000/svg">
<path d="M33.5397 13.9947C33.5619 14.301 33.5619 14.6055 33.5619 14.91C33.5619 24.2287 26.638 34.9667 13.9844 34.9667C10.086 34.9667 6.46432 33.81 3.41666 31.801C3.97016 31.8657 4.50316 31.8885 5.07886 31.8885C8.17606 31.8961 11.1856 30.8352 13.6222 28.8767C12.1863 28.8501 10.7942 28.3648 9.64052 27.4885C8.48682 26.6122 7.62904 25.3888 7.18695 23.989C7.61232 24.0537 8.03941 24.0975 8.48699 24.0975C9.1037 24.0975 9.72382 24.01 10.2995 23.8577C8.74112 23.5354 7.3398 22.6701 6.33384 21.4089C5.32788 20.1477 4.77938 18.5686 4.78161 16.94V16.8525C5.69899 17.3757 6.76328 17.703 7.89078 17.7467C6.94622 17.1037 6.17172 16.2312 5.63636 15.2071C5.101 14.1829 4.82144 13.039 4.82261 11.8772C4.82261 10.5682 5.16257 9.3677 5.75878 8.3212C7.48785 10.5 9.64439 12.2824 12.0887 13.5531C14.5331 14.8238 17.2107 15.5543 19.9482 15.6975C19.8423 15.1725 19.7774 14.6282 19.7774 14.0822C19.7769 13.1564 19.9546 12.2396 20.3002 11.3841C20.6459 10.5287 21.1527 9.75143 21.7918 9.09678C22.4309 8.44213 23.1896 7.92292 24.0247 7.56884C24.8598 7.21476 25.7548 7.03274 26.6585 7.0332C28.6402 7.0332 30.4288 7.8837 31.6862 9.2592C33.2267 8.95403 34.704 8.37794 36.0527 7.55645C35.5392 9.18538 34.4635 10.5666 33.0272 11.4415C34.3935 11.2818 35.7288 10.9137 36.9888 10.3495C36.0478 11.7549 34.8816 12.9873 33.5397 13.9947Z" fill="black"/>
</svg>
