<svg width="41" height="42" viewBox="0 0 41 42" fill="none" xmlns="http://www.w3.org/2000/svg">
<path d="M35.7845 14.5338C35.7672 13.2084 35.525 11.8962 35.0687 10.6558C34.6729 9.60956 34.0685 8.65939 33.294 7.866C32.5195 7.07261 31.5919 6.45344 30.5706 6.04805C29.3754 5.58842 28.1126 5.33989 26.8362 5.31305C25.1928 5.2378 24.6717 5.2168 20.5 5.2168C16.3282 5.2168 15.7935 5.2168 14.1621 5.31305C12.8862 5.34009 11.6241 5.58862 10.4294 6.04805C9.40789 6.45315 8.4802 7.07222 7.70566 7.86565C6.93112 8.65908 6.32679 9.6094 5.93133 10.6558C5.48175 11.8793 5.23967 13.1725 5.21554 14.4795C5.14208 16.1648 5.11987 16.6985 5.11987 20.972C5.11987 25.2455 5.11987 25.7915 5.21554 27.4645C5.24116 28.7735 5.48204 30.065 5.93133 31.2918C6.32746 32.3379 6.93224 33.2878 7.70703 34.0809C8.48183 34.874 9.40961 35.4928 10.4311 35.8978C11.6225 36.3759 12.8849 36.6422 14.1638 36.6853C15.8089 36.7605 16.33 36.7833 20.5017 36.7833C24.6735 36.7833 25.2082 36.7833 26.8396 36.6853C28.116 36.6595 29.3788 36.4116 30.574 35.952C31.5951 35.5462 32.5224 34.9269 33.2969 34.1335C34.0713 33.3402 34.6759 32.3903 35.0721 31.3443C35.5214 30.1193 35.7622 28.8278 35.7879 27.517C35.8613 25.8335 35.8835 25.2998 35.8835 21.0245C35.8801 16.751 35.8801 16.2085 35.7845 14.5338ZM20.4897 29.0535C16.1267 29.0535 12.5921 25.4328 12.5921 20.9633C12.5921 16.4938 16.1267 12.873 20.4897 12.873C22.5843 12.873 24.5931 13.7254 26.0742 15.2426C27.5553 16.7598 28.3874 18.8176 28.3874 20.9633C28.3874 23.109 27.5553 25.1668 26.0742 26.684C24.5931 28.2012 22.5843 29.0535 20.4897 29.0535ZM28.7017 14.4603C28.4598 14.4605 28.2202 14.4119 27.9967 14.3172C27.7732 14.2224 27.5701 14.0835 27.399 13.9083C27.228 13.733 27.0923 13.525 26.9998 13.296C26.9074 13.067 26.8599 12.8216 26.8601 12.5738C26.8601 12.3262 26.9077 12.081 27.0002 11.8522C27.0927 11.6234 27.2283 11.4156 27.3993 11.2405C27.5702 11.0654 27.7731 10.9265 27.9964 10.8317C28.2198 10.7369 28.4591 10.6882 28.7009 10.6882C28.9426 10.6882 29.1819 10.7369 29.4053 10.8317C29.6286 10.9265 29.8315 11.0654 30.0024 11.2405C30.1734 11.4156 30.309 11.6234 30.4015 11.8522C30.494 12.081 30.5416 12.3262 30.5416 12.5738C30.5416 13.6168 29.7182 14.4603 28.7017 14.4603Z" fill="black"/>
<path d="M20.4897 26.2185C23.323 26.2185 25.6199 23.8657 25.6199 20.9633C25.6199 18.0609 23.323 15.708 20.4897 15.708C17.6565 15.708 15.3596 18.0609 15.3596 20.9633C15.3596 23.8657 17.6565 26.2185 20.4897 26.2185Z" fill="black"/>
</svg>
