<svg width="113" height="31" viewBox="0 0 113 31" fill="none" xmlns="http://www.w3.org/2000/svg">
<path id="Vector-sc.dsn" d="M0 6.204C0 4.268 0.644997 2.7573 1.936 1.672C3.226 0.557305 5.03 0 7.348 0C9.694 0 11.674 0.249301 13.288 0.748001V3.74001C11.762 3.18271 9.9 2.904 7.7 2.904C4.678 2.904 3.168 4.048 3.168 6.336V8.44801C3.168 9.47471 3.358 10.2813 3.74 10.868C4.15 11.4547 4.825 12.012 5.764 12.54L10.868 15.4C13.244 16.6907 14.432 18.6413 14.432 21.252V23.628C14.432 25.652 13.742 27.221 12.364 28.336C10.985 29.451 8.99 30.008 6.38 30.008C3.798 30.008 1.745 29.715 0.220001 29.128V26.136C1.95 26.781 3.916 27.104 6.116 27.104C9.577 27.104 11.308 25.887 11.308 23.452V21.604C11.308 20.636 11.132 19.8733 10.78 19.316C10.428 18.7587 9.797 18.2307 8.888 17.732L3.828 14.96C1.276 13.5813 0 11.528 0 8.8V6.204ZM18.422 6.248C18.422 2.0827 21.062 0 26.342 0C28.044 0 29.745 0.234702 31.446 0.704002V3.608C29.716 3.1093 27.985 2.86 26.254 2.86C24.524 2.86 23.306 3.168 22.602 3.784C21.898 4.3707 21.546 5.2507 21.546 6.424V23.628C21.546 24.772 21.898 25.652 22.602 26.268C23.336 26.855 24.597 27.148 26.386 27.148C28.205 27.148 29.921 26.913 31.534 26.444V29.304C30.068 29.773 28.337 30.008 26.342 30.008C21.062 30.008 18.422 27.925 18.422 23.76V6.248ZM44.779 30.052C43.517 30.052 42.887 29.392 42.887 28.072C42.887 26.723 43.517 26.048 44.779 26.048C46.069 26.048 46.715 26.723 46.715 28.072C46.715 29.392 46.069 30.052 44.779 30.052ZM71.259 6.908C71.259 4.268 69.865 2.94801 67.079 2.94801H62.635V27.016H67.079C69.865 27.016 71.259 25.667 71.259 22.968V6.908ZM59.511 0.220001H67.255C69.601 0.220001 71.376 0.821302 72.579 2.024C73.781 3.2267 74.383 4.84 74.383 6.864V23.056C74.383 25.139 73.796 26.781 72.623 27.984C71.449 29.187 69.689 29.788 67.343 29.788H59.511V0.220001ZM78.16 6.204C78.16 4.268 78.805 2.7573 80.096 1.672C81.386 0.557305 83.19 0 85.508 0C87.854 0 89.834 0.249301 91.448 0.748001V3.74001C89.922 3.18271 88.06 2.904 85.86 2.904C82.838 2.904 81.328 4.048 81.328 6.336V8.44801C81.328 9.47471 81.518 10.2813 81.9 10.868C82.31 11.4547 82.985 12.012 83.924 12.54L89.028 15.4C91.404 16.6907 92.592 18.6413 92.592 21.252V23.628C92.592 25.652 91.902 27.221 90.524 28.336C89.145 29.451 87.15 30.008 84.54 30.008C81.958 30.008 79.905 29.715 78.38 29.128V26.136C80.11 26.781 82.076 27.104 84.276 27.104C87.737 27.104 89.468 25.887 89.468 23.452V21.604C89.468 20.636 89.292 19.8733 88.94 19.316C88.588 18.7587 87.957 18.2307 87.048 17.732L81.988 14.96C79.436 13.5813 78.16 11.528 78.16 8.8V6.204ZM110.134 24.772L109.826 15.048V0.220001H112.95V29.788H109.342L103.27 14.476C103.036 13.86 101.877 10.7947 99.794 5.28L100.058 14.96V29.788H97.022V0.220001H100.63C105.294 12.0707 108.462 20.2547 110.134 24.772Z" fill="black" fill-opacity="0.65"/>
</svg>
